<?xml version="1.0" encoding="utf-8"?>
<!-- Generator: Adobe Illustrator 22.0.0, SVG Export Plug-In . SVG Version: 6.00 Build 0)  -->
<svg version="1.1" id="图层_1" xmlns="http://www.w3.org/2000/svg" xmlns:xlink="http://www.w3.org/1999/xlink" x="0px" y="0px"
	 viewBox="0 0 19 19" style="enable-background:new 0 0 19 19;" xml:space="preserve">
<style type="text/css">
	.st0{opacity:0.6;}
	.st1{fill:#C2977B;}
</style>
<g id="_x2D_" class="st0">
	<g id="Footer" transform="translate(-997.000000, -93.000000)">
		<g id="Group-4" transform="translate(0.000000, 2.000000)">
			<g transform="translate(997.000000, 91.000000)">
				<path id="Fill-3" class="st1" d="M17.3,1H1.8C1.4,1,1.1,1.3,1.1,1.7v15.6c0,0.4,0.3,0.7,0.7,0.7h8.3v-6.4H8V9h2.1V6.8
					c0-2.2,1.4-3.3,3.3-3.3c0.9,0,1.7,0.1,2,0.1V6l-1.4,0c-1.1,0-1.3,0.5-1.3,1.2V9h2.7l-0.5,2.7h-2.1l0,6.4h4.6
					c0.4,0,0.7-0.3,0.7-0.7V1.7C18.1,1.3,17.7,1,17.3,1"/>
			</g>
		</g>
	</g>
</g>
</svg>
