<?xml version="1.0" encoding="utf-8"?>
<!-- Generator: Adobe Illustrator 22.0.0, SVG Export Plug-In . SVG Version: 6.00 Build 0)  -->
<svg version="1.1" id="图层_1" xmlns="http://www.w3.org/2000/svg" xmlns:xlink="http://www.w3.org/1999/xlink" x="0px" y="0px"
	 viewBox="0 0 19 19" style="enable-background:new 0 0 19 19;" xml:space="preserve">
<style type="text/css">
	.st0{opacity:0.6;}
	.st1{fill:#C2977B;}
</style>
<g id="_x2D_" class="st0">
	<g id="Footer" transform="translate(-997.000000, -93.000000)">
		<g id="Group-4" transform="translate(0.000000, 2.000000)">
			<g transform="translate(997.000000, 91.000000)">
				<path id="Fill-23" class="st1" d="M17.5,17H3.6c-0.3,0-0.6-0.3-0.6-0.6V8h2.3C5.1,8.4,5,9.2,5,9.7c0,3,2.5,5.5,5.6,5.5
					c3.1,0,5.6-2.5,5.6-5.5c0-0.5-0.1-1.3-0.4-1.7h2.3v8.4C18.1,16.7,17.8,17,17.5,17 M10.6,7c1.9,0,3.5,1.6,3.5,3.5
					c0,1.9-1.6,3.5-3.5,3.5c-1.9,0-3.5-1.6-3.5-3.5C7.1,8.6,8.6,7,10.6,7 M14.7,3h1.8c0.3,0,0.6,0.3,0.6,0.6v1.8
					c0,0.3-0.3,0.6-0.6,0.6h-1.8c-0.3,0-0.6-0.3-0.6-0.6V3.6C14.1,3.3,14.3,3,14.7,3 M16.9,1H3.2C2,1,1.1,2,1.1,3.1v13.7
					C1.1,18,2,19,3.2,19h13.7c1.2,0,2.1-1,2.1-2.1V3.1C19.1,2,18.1,1,16.9,1"/>
			</g>
		</g>
	</g>
</g>
</svg>
