<?xml version="1.0" encoding="UTF-8"?>
<svg width="18px" height="21px" viewBox="0 0 18 21" version="1.1" xmlns="http://www.w3.org/2000/svg" xmlns:xlink="http://www.w3.org/1999/xlink">
    <!-- Generator: Sketch 48.2 (47327) - http://www.bohemiancoding.com/sketch -->
    <title>Page 1</title>
    <desc>Created with Sketch.</desc>
    <defs></defs>
    <g id="Mobile-nav" stroke="none" stroke-width="1" fill="none" fill-rule="evenodd" transform="translate(-196.000000, -20.000000)" stroke-linecap="round" stroke-linejoin="round">
        <path d="M212.892358,33.549872 L209.856259,31.6945869 C209.64983,31.5684549 209.413053,31.5017611 209.171393,31.5017611 C208.777719,31.5017611 208.408182,31.6758206 208.157662,31.9794304 L207.743827,32.4809588 L206.981174,33.405183 C205.964235,32.8497974 205.01664,32.1703726 204.163435,31.3844193 C204.136994,31.3600719 204.111531,31.3346083 204.087253,31.3082378 C203.301509,30.4551722 202.622224,29.5079261 202.066629,28.4905679 L202.969924,27.7452169 L203.492381,27.3140797 C203.99377,26.9003136 204.116205,26.1700314 203.777225,25.6156224 L201.92187,22.5795237 C201.703511,22.2220566 201.307604,22 200.888745,22 C200.805867,22 200.722709,22.0085809 200.641434,22.0255334 L199.731721,22.2152895 C199.722791,22.2171731 199.714071,22.2196149 199.705141,22.2215682 C198.922746,22.3928371 198.257971,22.8937376 197.878878,23.60037 L197.555525,24.2027064 C196.915098,25.3961471 196.823917,26.806761 197.305284,28.0728253 C198.168116,30.341737 199.42246,32.4128698 201.033574,34.2288782 C201.098872,34.3024087 201.169264,34.3727999 201.243073,34.4382379 C203.058872,36.0492817 205.130005,37.3036956 207.398917,38.1664583 C207.93135,38.3689811 208.490015,38.4716029 209.059562,38.4716029 C209.827935,38.4716029 210.592122,38.2795446 211.269105,37.9162173 L211.871442,37.5929342 C212.586027,37.2094454 213.090904,36.5340669 213.256453,35.7401605 L213.256662,35.7393234 L213.446278,34.8303076 C213.550505,34.3306629 213.32789,33.8160888 212.892358,33.549872 Z" id="Page-1" stroke="white" stroke-width="2" transform="translate(205.235844, 30.235801) rotate(10.000000) translate(-205.235844, -30.235801) "></path>
    </g>
</svg>